PathFileType	4	(X/Y/Z)	TVC_60_BWA02_walk_RCNL2025.trc
DataRate	CameraRate	NumFrames	NumMarkers	Units	OrigDataRate	OrigDataStartFrame	OrigNumFrames
100	100	12	27	mm	100	139	276
Frame#	Time	R_Shoulder			L_Shoulder			C7			J_Notch			R_Elbow			L_Elbow			R_Wrist			L_Wrist			R_Asis			L_Asis			R_Psis			L_Psis			Sacral			Thoracic			Sternum			R_Thigh_Lateral			R_Knee_Lateral			R_Shank_Lateral			R_Ankle_Lateral			R_Heel			R_Toe			L_Thigh_Lateral			L_Knee_Lateral			L_Shank_Lateral			L_Ankle_Lateral			L_Heel			L_Toe		
		X1	Y1	Z1	X2	Y2	Z2	X3	Y3	Z3	X4	Y4	Z4	X5	Y5	Z5	X6	Y6	Z6	X7	Y7	Z7	X8	Y8	Z8	X9	Y9	Z9	X10	Y10	Z10	X11	Y11	Z11	X12	Y12	Z12	X13	Y13	Z13	X14	Y14	Z14	X15	Y15	Z15	X16	Y16	Z16	X17	Y17	Z17	X18	Y18	Z18	X19	Y19	Z19	X20	Y20	Z20	X21	Y21	Z21	X22	Y22	Z22	X23	Y23	Z23	X24	Y24	Z24	X25	Y25	Z25	X26	Y26	Z26	X27	Y27	Z27
139	1.38000000	250.521973	1321.480957	-85.644676	213.383514	1343.378296	-436.386963	180.672287	1398.703857	-258.507019	288.801361	1267.701782	-270.979340	135.902542	1013.928345	6.255514	149.485565	1004.833435	-495.900940	155.599785	782.695984	62.126764	226.126495	788.449005	-552.565704	286.221741	910.214600	-128.776108	249.497681	907.460632	-409.680359	100.444237	907.197083	-184.273941	86.059990	906.463196	-293.950104	93.252113	906.830139	-239.112022	122.942719	1188.776245	-255.116089	319.468597	1074.906982	-266.175873	289.172394	587.021179	-66.806702	345.563232	445.389771	-146.362350	322.087799	225.718414	-126.787964	284.540070	60.240826	-205.873047	241.508423	57.522175	-254.856262	414.100677	42.063007	-217.620773	203.209686	625.088196	-474.561188	206.711487	436.735474	-410.095825	51.401733	326.018127	-430.069702	-99.218323	197.368881	-346.548706	-116.699638	233.691925	-298.627625	-48.061981	79.686790	-343.696442
140	1.39000000	259.119781	1321.451904	-84.598915	221.326401	1344.083130	-435.156708	188.897217	1399.334229	-257.091827	296.832245	1268.098511	-269.982880	147.063065	1013.342346	8.164665	155.808304	1005.716675	-493.897461	169.733124	782.287140	63.457298	230.440514	788.575562	-550.426270	293.896454	910.650940	-127.782997	256.855103	907.757751	-408.894501	107.985825	907.727234	-183.371185	93.577660	906.617920	-293.079437	100.781742	907.172577	-238.225311	130.888824	1189.465820	-253.926987	327.148193	1075.057495	-265.513580	294.861633	586.877991	-66.213318	349.277008	444.704834	-145.837112	324.142548	225.109039	-126.600090	284.740295	60.237846	-205.930847	241.694107	57.726704	-254.748413	414.223297	42.011192	-217.512573	215.791992	625.430664	-474.018768	224.538010	437.345123	-409.797791	68.488937	328.835266	-429.398224	-82.894196	201.430908	-346.004639	-100.016685	236.915756	-297.326294	-31.421272	84.440193	-346.358643
141	1.40000000	267.657104	1321.391357	-83.605705	229.111588	1344.755981	-433.964325	197.028976	1399.938965	-255.707886	304.740173	1268.457520	-269.046844	158.309860	1012.708557	10.060230	162.116119	1006.557373	-491.961578	184.101921	781.859802	64.658915	234.861725	788.719879	-548.330566	301.434784	911.033447	-126.828407	264.066193	908.073608	-408.171448	115.389931	908.221008	-182.495636	100.956558	906.774414	-292.229980	108.173244	907.497711	-237.362808	138.713379	1190.136719	-252.746399	334.679840	1075.175415	-264.920197	300.544983	586.732239	-65.632629	352.819061	444.026184	-145.347870	326.213531	224.495300	-126.429092	284.928558	60.245079	-205.964386	241.877838	57.958370	-254.616745	414.326141	41.958714	-217.400299	227.958008	625.911987	-473.384583	242.291214	438.280853	-409.328735	85.922493	331.412567	-428.716187	-65.742493	204.592224	-345.648285	-82.844200	239.118866	-296.282654	-13.158080	88.711586	-349.006622
142	1.41000000	276.130707	1321.311157	-82.664108	236.738495	1345.401978	-432.809021	205.066345	1400.518066	-254.355911	312.527496	1268.785767	-268.169434	169.641693	1012.036560	11.935874	168.405212	1007.357849	-490.092590	198.693993	781.427948	65.723539	239.396446	788.885651	-546.286194	308.847961	911.376648	-125.909294	271.159760	908.423462	-407.498993	122.668800	908.685913	-181.655060	108.213409	906.941467	-291.411194	115.441105	907.813690	-236.533127	146.420547	1190.788818	-251.576141	342.075470	1075.277710	-264.388733	306.179291	586.594727	-65.056526	356.188232	443.362823	-144.893188	328.238190	223.889374	-126.261963	285.097290	60.260094	-205.976974	242.052689	58.209034	-254.471649	414.404205	41.906090	-217.290283	239.766357	626.493713	-472.640961	259.954956	439.536407	-408.683716	103.707352	333.667450	-428.064728	-47.787640	206.766800	-345.536407	-65.201439	240.271729	-295.589630	6.593076	92.338669	-351.537292
143	1.42000000	284.537842	1321.222534	-81.772705	244.209335	1346.026245	-431.689728	213.008926	1401.071533	-253.036484	320.198151	1269.090332	-267.348083	181.056946	1011.335938	13.785252	174.671768	1008.120728	-488.289185	213.496407	781.005890	66.644215	244.049438	789.076324	-544.300507	316.147400	911.694275	-125.022530	278.164459	908.820801	-406.865082	129.835022	909.129089	-180.857300	115.365402	907.126404	-290.632629	122.600212	908.127747	-235.744965	154.015533	1191.421875	-250.418472	349.347961	1075.379761	-263.911133	311.717255	586.478088	-64.477776	359.382111	442.723053	-144.471390	330.149414	223.305054	-126.086906	285.241119	60.280128	-205.972565	242.214233	58.470284	-254.324707	414.455078	41.853729	-217.185516	251.309097	627.141663	-471.777191	277.517090	441.093964	-407.860443	121.855850	335.515076	-427.483521	-29.057222	207.893387	-345.713501	-47.101086	240.362640	-295.322388	27.689020	95.196510	-353.866882
144	1.43000000	292.876038	1321.135620	-80.929680	251.529114	1346.632935	-430.605103	220.857178	1401.598999	-251.749985	327.757263	1269.377075	-266.579315	192.553452	1010.615662	15.602094	180.912216	1008.848694	-486.549774	228.495461	780.607452	67.415201	248.823952	789.294830	-542.380493	323.344391	911.998169	-124.165184	285.108093	909.276306	-406.258575	136.901291	909.556458	-180.109909	122.429787	907.334656	-289.903564	129.665539	908.445557	-235.006737	161.504440	1192.035278	-249.276031	356.510925	1075.494873	-263.478638	317.116119	586.396240	-63.891617	362.398224	442.114075	-144.080765	331.889709	222.757233	-125.896332	285.357697	60.302685	-205.955170	242.360718	58.735188	-254.186783	414.478973	41.802021	-217.085968	262.691101	627.832520	-470.791534	294.964386	442.927490	-406.860168	140.382721	336.876343	-427.006714	-9.580537	207.938034	-346.208832	-28.548717	239.395432	-295.531708	49.989166	97.202721	-355.938568
145	1.44000000	301.143219	1321.059082	-80.132820	258.705475	1347.225830	-429.553802	228.612457	1402.099854	-250.496643	335.211304	1269.651245	-265.859131	204.128433	1009.884094	17.380283	187.123520	1009.544250	-484.872467	243.676712	780.245972	68.032068	253.721794	789.543213	-540.532776	330.449799	912.297668	-123.334679	292.016907	909.797058	-405.669708	143.880096	909.972900	-179.420044	129.423569	907.569519	-289.232819	136.651833	908.771210	-234.326431	168.894180	1192.628052	-248.151917	363.578430	1075.633545	-263.082123	322.344635	586.363220	-63.296703	365.235382	441.541931	-143.719849	333.421082	222.260544	-125.688560	285.447998	60.325970	-205.928619	242.492386	58.999554	-254.066208	414.478485	41.751564	-216.989548	274.012360	628.557068	-469.692291	312.278595	445.005890	-405.688568	159.299683	337.686096	-426.659515	10.612695	206.894974	-347.034576	-9.542368	237.387604	-296.240753	73.362274	98.318565	-357.726410
146	1.45000000	309.337646	1320.999146	-79.379631	265.748474	1347.806885	-428.534485	236.276932	1402.572876	-249.276672	342.567627	1269.916748	-265.182953	215.778412	1009.148560	19.113916	193.303436	1010.209351	-483.255432	259.025002	779.933777	68.491760	258.743515	789.822693	-538.763519	337.473724	912.599182	-122.528786	298.915131	910.386536	-405.090759	150.783478	910.381531	-178.794235	136.363235	907.832092	-288.628326	143.573357	909.106812	-233.711281	176.192261	1193.198486	-247.049576	370.564758	1075.803345	-262.712494	327.386353	586.392029	-62.695171	367.894562	441.011078	-143.387726	334.729309	221.828018	-125.467979	285.516052	60.349186	-205.896255	242.610428	59.262066	-253.967911	414.458069	41.703419	-216.893036	285.357910	629.320923	-468.496857	329.433807	447.294952	-404.356415	178.610153	337.899811	-426.455750	31.493343	204.786209	-348.186066	9.927516	234.369019	-297.444092	97.689453	98.546432	-359.234650
147	1.46000000	317.457825	1320.960083	-78.667351	272.670441	1348.377197	-427.545807	243.853607	1403.016235	-248.090195	349.834595	1270.176270	-264.545837	227.499084	1008.415283	20.797363	199.450684	1010.845337	-481.696869	274.524506	779.681915	68.792604	263.888481	790.133026	-537.078278	344.425507	912.905823	-121.745628	305.824707	911.044373	-404.515869	157.622940	910.783875	-178.238251	143.264465	908.121399	-288.097076	150.443703	909.452637	-233.167664	183.406677	1193.744385	-245.972839	377.484314	1076.008301	-262.360962	332.239777	586.494019	-62.091755	370.379578	440.524261	-143.084152	335.821777	221.470474	-125.243225	285.568268	60.372665	-205.861069	242.715851	59.523354	-253.893585	414.423218	41.659184	-216.793091	296.791718	630.141541	-467.230499	346.395081	449.758453	-402.879547	198.304474	337.498871	-426.396973	53.033573	201.659607	-349.642609	29.877317	230.380997	-299.109528	122.864616	97.924644	-360.493439
148	1.47000000	325.502441	1320.943481	-77.992943	279.485626	1348.935913	-426.586639	251.346268	1403.427856	-246.937347	357.021240	1270.430542	-263.942627	239.285324	1007.689026	22.425310	205.565201	1011.452515	-480.195251	290.158752	779.500153	68.934345	269.154999	790.472839	-535.481964	351.313324	913.217407	-120.983559	312.765045	911.766052	-403.941162	164.409210	911.179688	-177.756973	150.141983	908.433960	-287.644867	157.275597	909.806824	-232.700920	190.545776	1194.262695	-244.925781	384.351227	1076.249023	-262.019135	336.916046	586.678101	-61.492149	372.697479	440.082306	-142.809540	336.721924	221.195709	-125.024078	285.612244	60.397739	-205.825790	242.808640	59.784710	-253.842270	414.379852	41.620785	-216.687134	308.352570	631.043701	-465.923889	363.118530	452.358429	-401.278809	218.356552	336.492828	-426.473328	75.207184	197.585602	-351.369659	50.328537	225.475906	-301.181671	148.793640	96.521019	-361.552216
149	1.48000000	333.470337	1320.948730	-77.353165	286.209869	1349.480957	-425.655945	258.759430	1403.804688	-245.818314	364.137024	1270.678955	-263.368042	251.131088	1006.973206	23.992792	211.648239	1012.030457	-478.749359	305.910690	779.396515	68.918079	274.540558	790.839264	-533.978790	358.144073	913.530701	-120.241119	319.752960	912.543579	-403.364227	171.152176	911.566833	-177.354370	157.009323	908.764526	-287.276306	164.080750	910.165680	-232.315338	197.618118	1194.749756	-243.912750	391.179352	1076.523071	-261.679291	341.435211	586.949158	-60.901653	374.858521	439.683960	-142.564758	337.461639	221.007141	-124.818939	285.655762	60.426361	-205.793198	242.887665	60.046703	-253.811111	414.333557	41.590141	-216.573959	320.054932	632.054138	-464.609222	379.552643	455.055145	-399.579071	238.721725	334.919525	-426.665466	97.989510	192.653290	-353.320862	71.305328	219.716644	-303.586639	175.393326	94.426216	-362.471588
150	1.49000000	341.360260	1320.972412	-76.744499	292.860229	1350.008301	-424.752991	266.098297	1404.143433	-244.733307	371.191833	1270.919434	-262.816864	263.029358	1006.269775	25.495222	217.702515	1012.577637	-477.358337	321.762756	779.377411	68.746218	280.041885	791.228088	-532.572235	364.923401	913.839539	-119.516953	326.802795	913.365356	-402.783997	177.860825	911.941589	-177.033432	163.878784	909.105713	-286.994781	170.869804	910.523651	-232.014107	204.632401	1195.201172	-242.938309	397.982086	1076.824951	-261.334412	345.822754	587.307434	-60.324402	376.876129	439.325684	-142.350769	338.075531	220.902451	-124.633476	285.705902	60.460571	-205.766113	242.951401	60.308060	-253.796463	414.288879	41.568668	-216.454117	331.892822	633.195374	-463.316711	395.641083	457.807098	-397.807770	259.336395	332.842438	-426.946930	121.357063	186.965790	-355.440735	92.831764	213.176071	-306.237427	202.590317	91.747711	-363.314148
